<svg xmlns="http://www.w3.org/2000/svg" viewBox="-1073 1488.068 189.126 266.932">
  <defs>
    <style>
      .cls-1 {
        fill: #ffd0b8;
      }

      .cls-2 {
        fill: #bc6d1e;
      }

      .cls-3 {
        fill: #f7b348;
      }

      .cls-4 {
        fill: #00a9f5;
      }

      .cls-5 {
        fill: #0088d2;
      }

      .cls-6 {
        fill: #e2b39f;
      }

      .cls-7 {
        fill: #e6e6e6;
      }

      .cls-8 {
        fill: #ccc;
      }

      .cls-9 {
        fill: #4d4d4d;
      }

      .cls-10 {
        fill: #ff9700;
      }

      .cls-11 {
        fill: #fb5520;
      }
    </style>
  </defs>
  <g id="wizard" transform="translate(-1147.619 1488.068)">
    <path id="Path_34" data-name="Path 34" class="cls-1" d="M385.819,355.591H375.75a4.442,4.442,0,1,1,0-8.884h10.069a4.442,4.442,0,0,1,0,8.884Z" transform="translate(-142.01 -165.951)"/>
    <rect id="Rectangle_191" data-name="Rectangle 191" class="cls-2" width="5.923" height="136.223" transform="translate(242.035 130.709)"/>
    <path id="Path_35" data-name="Path 35" class="cls-1" d="M406.423,357.019a4.441,4.441,0,0,1-4.442-4.442V345.47a4.442,4.442,0,0,1,8.884,0v7.107A4.442,4.442,0,0,1,406.423,357.019Z" transform="translate(-156.691 -163.232)"/>
    <path id="Path_36" data-name="Path 36" class="cls-2" d="M399.009,270.268h-7.7a2.961,2.961,0,1,1,0-5.923h7.7a2.961,2.961,0,1,1,0,5.923Z" transform="translate(-150.164 -126.528)"/>
    <path id="Path_37" data-name="Path 37" class="cls-1" d="M118.8,355.591H108.733a4.442,4.442,0,0,1,0-8.884H118.8a4.442,4.442,0,1,1,0,8.884Z" transform="translate(-14.202 -165.951)"/>
    <path id="Path_38" data-name="Path 38" class="cls-3" d="M93.317,319.724,81.05,256.392,101.9,317.438a4.452,4.452,0,0,1-8.427,2.879A4.8,4.8,0,0,1,93.317,319.724Z" transform="translate(-3.078 -122.721)"/>
    <path id="Path_39" data-name="Path 39" class="cls-4" d="M258.82,57.622l-.047.474a322.939,322.939,0,0,0-34.394-1.777c-4.365,0-8.665.077-12.87.237-7.492.284-14.7.805-21.524,1.54l-.047-.474L224.38,0Z" transform="translate(-55.197)"/>
    <path id="Path_40" data-name="Path 40" class="cls-5" d="M224.38,0,212.238,56.32l-.728.237c-7.492.284-14.7.805-21.523,1.54l-.047-.474Z" transform="translate(-55.198)"/>
    <path id="Path_41" data-name="Path 41" class="cls-4" d="M196.725,317.048c.634-.267,39.623-16.921,42.537-48.306l3.24,19.13,5.313,31.4a.006.006,0,0,0,.006.006l12.5,73.816H154.893l12.5-73.815,5.319-31.4,4.116-24.307c.675,6.776,3.275,18.538,13.036,24.206C204.034,296.011,202.9,310.865,196.725,317.048Z" transform="translate(-38.423 -126.158)"/>
    <path id="Path_42" data-name="Path 42" class="cls-5" d="M196.1,258.706l-9.622,117.856H154.893l20.938-123.65,5.272-23.872" transform="translate(-38.423 -109.63)"/>
    <g id="Group_26" data-name="Group 26" transform="translate(74.619 55.135)">
      <path id="Path_43" data-name="Path 43" class="cls-4" d="M263.745,131.808c0,9.53-18.574,17.869-46.286,22.406a17.706,17.706,0,0,0,1.013-5.277c0-6.213-3.98-11.253-8.884-11.253a7,7,0,0,0-2.085.326,62.265,62.265,0,0,0-3.6-14.748,347.128,347.128,0,0,0-69.45,0,62.268,62.268,0,0,0-3.6,14.748,7,7,0,0,0-2.085-.326c-4.9,0-8.884,5.04-8.884,11.253a17.706,17.706,0,0,0,1.013,5.277c-27.712-4.537-46.286-12.876-46.286-22.406,0-11.046,24.947-20.486,60.169-24.277a322.935,322.935,0,0,1,34.394-1.777c6.438,0,12.722.178,18.793.515h.006c5.378.3,10.6.723,15.595,1.262C238.8,111.321,263.745,120.762,263.745,131.808Z" transform="translate(-74.619 -105.754)"/>
      <path id="Path_44" data-name="Path 44" class="cls-4" d="M352.6,326.561v25.468s-16.7,2.2-24.343-10.442a.006.006,0,0,1-.006-.006l-5.313-31.4a46.1,46.1,0,0,0,5.881,7.179.02.02,0,0,0,.006.012C334.1,322.675,342.546,328.639,352.6,326.561Z" transform="translate(-193.475 -203.604)"/>
    </g>
    <path id="Path_45" data-name="Path 45" class="cls-1" d="M260.038,163.411a17.7,17.7,0,0,1-1.013,5.277c-2,6.154-6.6,13.3-10.128,13.3l-.6.379c-6.562-6.059-9.992-14.9-16.82-17.176-10.661-3.554-20.73,8.884-20.73,8.884s-10.069-12.438-20.729-8.884a14.871,14.871,0,0,0-6.1,4.288c-3.453,3.731-6.408,8.908-10.72,12.888l-.6-.379c-3.524,0-8.126-7.143-10.128-13.3a17.7,17.7,0,0,1-1.013-5.277c0-6.213,3.98-11.253,8.884-11.253a7.006,7.006,0,0,1,2.085.326,62.265,62.265,0,0,1,3.6-14.747,347.1,347.1,0,0,1,69.45,0,58.874,58.874,0,0,1,2.328,7.611,64.162,64.162,0,0,1,1.267,7.137,7.005,7.005,0,0,1,2.085-.326C256.058,152.158,260.038,157.2,260.038,163.411Z" transform="translate(-41.566 -65.094)"/>
    <path id="Path_46" data-name="Path 46" class="cls-6" d="M251.922,199.063a4.441,4.441,0,0,1-4.442-4.442V183.368a4.442,4.442,0,1,1,8.884,0v11.253A4.442,4.442,0,0,1,251.922,199.063Z" transform="translate(-82.74 -85.643)"/>
    <path id="Path_47" data-name="Path 47" class="cls-7" d="M259.193,242.64c-2.914,31.385-41.9,48.039-42.537,48.306,6.171-6.183,7.309-21.037-6.865-29.27-9.553-5.544-12.248-16.927-12.989-23.762-.018-.148-.035-.3-.047-.444-.053-.557-.095-1.078-.13-1.558a34.029,34.029,0,0,1-.083-3.548,42.112,42.112,0,0,0,4.489.237c12.385,0,21.15-13.379,24.721-19.971,1.172-2.162,1.783-3.6,1.783-3.6s.61,1.433,1.782,3.6c3.571,6.592,12.337,19.971,24.721,19.971a41.476,41.476,0,0,0,4.8-.273,42.967,42.967,0,0,1,.509,5.461A39.614,39.614,0,0,1,259.193,242.64Z" transform="translate(-58.351 -100.054)"/>
    <path id="Path_48" data-name="Path 48" class="cls-5" d="M169.183,121.52a333.646,333.646,0,0,0-34.725,1.741,62.273,62.273,0,0,0-3.6,14.747,7,7,0,0,0-2.085-.326c-4.9,0-8.884,5.04-8.884,11.253a17.706,17.706,0,0,0,1.013,5.277c-27.712-4.537-46.286-12.876-46.286-22.406,0-11.046,24.947-20.486,60.169-24.277a322.936,322.936,0,0,1,34.394-1.777c6.438,0,12.722.178,18.793.515C187.526,106.293,163.906,107.454,169.183,121.52Z" transform="translate(0 -50.619)"/>
    <g id="Group_27" data-name="Group 27" transform="translate(138.177 108.978)">
      <path id="Path_49" data-name="Path 49" class="cls-8" d="M287.349,237.788c-.171.023-.338.047-.509.065a41.475,41.475,0,0,1-4.8.273c-16.436,0-26.5-23.567-26.5-23.567s-1.139-4.4,0-5.528c3.571,6.592,14.122,23.569,26.506,23.569a41.49,41.49,0,0,0,4.8-.273A42.94,42.94,0,0,1,287.349,237.788Z" transform="translate(-224.531 -209.03)"/>
      <path id="Path_50" data-name="Path 50" class="cls-8" d="M227.536,214.558s-10.069,23.567-26.5,23.567a40.439,40.439,0,0,1-4.229-.213c-.018-.148-.035-.3-.047-.444a39.263,39.263,0,0,1-.213-5.106,42.08,42.08,0,0,0,4.489.237c12.385,0,17.719-18.467,26.5-23.569C228.671,210.161,227.536,214.558,227.536,214.558Z" transform="translate(-196.529 -209.03)"/>
    </g>
    <path id="Path_51" data-name="Path 51" class="cls-5" d="M161.812,310.195l11.5,21.405-16.822,9.991-.024-.006c-7.634,12.645-24.342,10.448-24.342,10.448V326.566C149.3,330.119,161.812,310.195,161.812,310.195Z" transform="translate(-27.526 -148.474)"/>
    <path id="Path_52" data-name="Path 52" class="cls-6" d="M247.8,145.347c-18.888-2.44-70.327-6.379-63.883,24.129-3.453,3.731-6.408,8.908-10.72,12.888l-.6-.379c-3.524,0-8.126-7.143-10.128-13.3a17.7,17.7,0,0,1-1.013-5.277c0-6.213,3.98-11.253,8.884-11.253a7.005,7.005,0,0,1,2.085.326,62.267,62.267,0,0,1,3.6-14.747,347.105,347.105,0,0,1,69.45,0A58.967,58.967,0,0,1,247.8,145.347Z" transform="translate(-41.566 -65.094)"/>
    <path id="Path_53" data-name="Path 53" class="cls-5" d="M352.6,352.028s-16.7,2.2-24.343-10.442a.005.005,0,0,1-.006-.006l-5.313-31.4a46.1,46.1,0,0,0,5.881,7.178.02.02,0,0,0,.006.012C329.119,318.108,341.48,348.516,352.6,352.028Z" transform="translate(-118.856 -148.469)"/>
    <g id="Group_28" data-name="Group 28" transform="translate(145.463 82.269)">
      <path id="Path_54" data-name="Path 54" class="cls-9" d="M225.577,163.882c-1.86-.1-3.154-.17-4.346-.164l-3.19,0-3.187.006c-1.192-.006-2.484.064-4.35.156a6.145,6.145,0,0,1,2.566-4.464,8.416,8.416,0,0,1,9.937.008A6.161,6.161,0,0,1,225.577,163.882Z" transform="translate(-210.504 -157.799)"/>
      <path id="Path_55" data-name="Path 55" class="cls-9" d="M287.657,163.882c-1.86-.1-3.153-.17-4.346-.164l-3.19,0-3.187.006c-1.192-.006-2.484.064-4.35.156a6.146,6.146,0,0,1,2.566-4.464,8.417,8.417,0,0,1,9.938.008A6.163,6.163,0,0,1,287.657,163.882Z" transform="translate(-240.218 -157.799)"/>
    </g>
    <g id="Group_29" data-name="Group 29" transform="translate(116.47 99.456)">
      <path id="Path_56" data-name="Path 56" class="cls-7" d="M287.3,223.582a41.492,41.492,0,0,1-4.8.273c-16.436,0-26.5-23.567-26.5-23.567s10.069-12.438,20.729-8.884c6.829,2.274,10.258,11.117,16.821,17.176a21.212,21.212,0,0,0,15.162,5.923A39.39,39.39,0,0,1,287.3,223.582Z" transform="translate(-203.287 -190.765)"/>
      <path id="Path_57" data-name="Path 57" class="cls-7" d="M207.605,200.288s-10.069,23.567-26.5,23.567a42.064,42.064,0,0,1-4.489-.237,39.419,39.419,0,0,1-21.718-9.115,21.217,21.217,0,0,0,15.162-5.923c6.562-6.059,9.992-14.9,16.82-17.176C197.536,187.851,207.605,200.288,207.605,200.288Z" transform="translate(-154.893 -190.766)"/>
    </g>
    <path id="Path_58" data-name="Path 58" class="cls-1" d="M92.428,356.57a4.443,4.443,0,0,1-4.259-3.19l-2.961-10.069a4.442,4.442,0,1,1,8.524-2.507l2.961,10.069a4.446,4.446,0,0,1-4.264,5.7Z" transform="translate(-4.981 -161.598)"/>
    <path id="Path_103" data-name="Path 103" class="cls-10" d="M10.069,0A10.069,10.069,0,1,1,0,10.069,10.069,10.069,0,0,1,10.069,0Z" transform="translate(234.928 113.237)"/>
    <path id="Path_59" data-name="Path 59" class="cls-11" d="M388.022,227.267a10.071,10.071,0,0,1,7.107-9.625,10.069,10.069,0,1,0,0,19.249A10.071,10.071,0,0,1,388.022,227.267Z" transform="translate(-147.175 -103.961)"/>
    <path id="Path_60" data-name="Path 60" class="cls-8" d="M216.744,314.66c6.171-6.183,7.309-21.038-6.865-29.27-9.553-5.544-12.248-16.927-12.988-23.762-.018-.148-.035-.3-.047-.444-.053-.557-.095-1.078-.13-1.558l1.3-1.048,11.869.977a24.224,24.224,0,0,0,7.084,18.568C225.255,286.414,229.312,302.092,216.744,314.66Z" transform="translate(-58.44 -123.767)"/>
  </g>
</svg>
