<svg xmlns="http://www.w3.org/2000/svg" xmlns:xlink="http://www.w3.org/1999/xlink" viewBox="-605 1470 73 101">
  <defs>
    <style>
      .cls-1 {
        clip-path: url(#clip-Artboard_4);
      }

      .cls-2 {
        fill: #ffd0b8;
      }

      .cls-3 {
        fill: #bc6d1e;
      }

      .cls-4 {
        fill: #f7b348;
      }

      .cls-5 {
        fill: #00a9f5;
      }

      .cls-6 {
        fill: #0088d2;
      }

      .cls-7 {
        fill: #e2b39f;
      }

      .cls-8 {
        fill: #e6e6e6;
      }

      .cls-9 {
        fill: #ccc;
      }

      .cls-10 {
        fill: #4d4d4d;
      }

      .cls-11 {
        fill: #ff9700;
      }

      .cls-12 {
        fill: #fb5520;
      }
    </style>
    <clipPath id="clip-Artboard_4">
      <rect x="-605" y="1470" width="73" height="101"/>
    </clipPath>
  </defs>
  <g id="Artboard_4" data-name="Artboard – 4" class="cls-1">
    <g id="wizard" transform="translate(-678.619 1470.068)">
      <path id="Path_34" data-name="Path 34" class="cls-2" d="M376.846,350.1H373a1.7,1.7,0,1,1,0-3.39h3.842a1.7,1.7,0,0,1,0,3.39Z" transform="translate(-237.661 -277.728)"/>
      <rect id="Rectangle_191" data-name="Rectangle 191" class="cls-3" width="2.26" height="51.985" transform="translate(138.507 49.88)"/>
      <path id="Path_35" data-name="Path 35" class="cls-2" d="M403.676,347.13a1.7,1.7,0,0,1-1.7-1.7v-2.712a1.7,1.7,0,0,1,3.39,0v2.712A1.7,1.7,0,0,1,403.676,347.13Z" transform="translate(-262.232 -273.179)"/>
      <path id="Path_36" data-name="Path 36" class="cls-3" d="M392.415,266.605h-2.94a1.13,1.13,0,0,1,0-2.26h2.94a1.13,1.13,0,0,1,0,2.26Z" transform="translate(-251.309 -211.752)"/>
      <path id="Path_37" data-name="Path 37" class="cls-2" d="M109.829,350.1h-3.842a1.7,1.7,0,0,1,0-3.39h3.842a1.7,1.7,0,1,1,0,3.39Z" transform="translate(-23.769 -277.728)"/>
      <path id="Path_38" data-name="Path 38" class="cls-4" d="M85.731,280.56,81.05,256.392l7.957,23.3a1.7,1.7,0,0,1-3.216,1.1A1.833,1.833,0,0,1,85.731,280.56Z" transform="translate(-5.152 -205.382)"/>
      <path id="Path_39" data-name="Path 39" class="cls-5" d="M216.224,21.99l-.018.181a123.238,123.238,0,0,0-13.125-.678c-1.666,0-3.307.029-4.911.09-2.859.108-5.61.307-8.214.588l-.018-.181L203.081,0Z" transform="translate(-92.376)"/>
      <path id="Path_40" data-name="Path 40" class="cls-6" d="M203.082,0l-4.633,21.492-.278.09c-2.859.108-5.61.307-8.214.588l-.018-.181Z" transform="translate(-92.377)"/>
      <path id="Path_41" data-name="Path 41" class="cls-5" d="M170.857,283.979c.242-.1,15.121-6.457,16.233-18.434l1.236,7.3,2.027,11.981a0,0,0,0,0,0,0L195.124,313H154.893l4.769-28.169,2.03-11.981,1.571-9.276c.258,2.586,1.25,7.074,4.975,9.237C173.646,275.951,173.212,281.62,170.857,283.979Z" transform="translate(-64.303 -211.133)"/>
      <path id="Path_42" data-name="Path 42" class="cls-6" d="M170.619,240.362l-3.672,44.975H154.893l7.99-47.186,2.012-9.11" transform="translate(-64.303 -183.472)"/>
      <g id="Group_26" data-name="Group 26" transform="translate(74.619 21.04)">
        <path id="Path_43" data-name="Path 43" class="cls-5" d="M146.792,115.7c0,3.637-7.088,6.819-17.663,8.55a6.757,6.757,0,0,0,.387-2.014c0-2.371-1.519-4.294-3.39-4.294a2.672,2.672,0,0,0-.8.124,23.761,23.761,0,0,0-1.372-5.628,132.467,132.467,0,0,0-26.5,0,23.762,23.762,0,0,0-1.372,5.628,2.671,2.671,0,0,0-.8-.124c-1.871,0-3.39,1.924-3.39,4.294a6.757,6.757,0,0,0,.387,2.014c-10.575-1.731-17.663-4.914-17.663-8.55,0-4.215,9.52-7.818,22.961-9.265a123.235,123.235,0,0,1,13.125-.678c2.457,0,4.855.068,7.172.2h0c2.052.113,4.044.276,5.951.481C137.272,107.878,146.792,111.481,146.792,115.7Z" transform="translate(-74.619 -105.754)"/>
        <path id="Path_44" data-name="Path 44" class="cls-5" d="M334.255,316.434v9.719s-6.374.839-9.289-3.985a0,0,0,0,1,0,0l-2.027-11.981a17.593,17.593,0,0,0,2.244,2.739.007.007,0,0,0,0,0C327.2,314.951,330.419,317.227,334.255,316.434Z" transform="translate(-273.532 -269.512)"/>
      </g>
      <path id="Path_45" data-name="Path 45" class="cls-2" d="M199.079,146.457a6.756,6.756,0,0,1-.387,2.014c-.764,2.348-2.52,5.074-3.865,5.074l-.228.145c-2.5-2.312-3.813-5.687-6.419-6.555-4.068-1.356-7.911,3.39-7.911,3.39s-3.842-4.746-7.911-3.39a5.675,5.675,0,0,0-2.328,1.636c-1.318,1.424-2.446,3.4-4.091,4.918l-.228-.145c-1.345,0-3.1-2.726-3.865-5.074a6.756,6.756,0,0,1-.387-2.014c0-2.371,1.519-4.294,3.39-4.294a2.673,2.673,0,0,1,.8.124,23.762,23.762,0,0,1,1.372-5.628,132.461,132.461,0,0,1,26.5,0,22.466,22.466,0,0,1,.888,2.9,24.482,24.482,0,0,1,.484,2.723,2.673,2.673,0,0,1,.8-.124C197.56,142.163,199.079,144.087,199.079,146.457Z" transform="translate(-69.564 -108.938)"/>
      <path id="Path_46" data-name="Path 46" class="cls-7" d="M249.175,186.611a1.7,1.7,0,0,1-1.7-1.7v-4.294a1.7,1.7,0,1,1,3.39,0v4.294A1.7,1.7,0,0,1,249.175,186.611Z" transform="translate(-138.469 -143.328)"/>
      <path id="Path_47" data-name="Path 47" class="cls-8" d="M220.441,221.859c-1.112,11.977-15.991,18.332-16.233,18.434,2.355-2.36,2.789-8.028-2.62-11.17-3.646-2.115-4.674-6.46-4.957-9.068-.007-.056-.014-.113-.018-.169-.02-.212-.036-.411-.05-.595a12.99,12.99,0,0,1-.032-1.354,16.069,16.069,0,0,0,1.713.09c4.726,0,8.071-5.106,9.434-7.621.447-.825.68-1.372.68-1.372s.233.547.68,1.372c1.363,2.516,4.708,7.621,9.434,7.621a15.829,15.829,0,0,0,1.831-.1,16.4,16.4,0,0,1,.194,2.084A15.113,15.113,0,0,1,220.441,221.859Z" transform="translate(-97.654 -167.446)"/>
      <path id="Path_48" data-name="Path 48" class="cls-6" d="M110.706,111.771a127.322,127.322,0,0,0-13.252.664,23.764,23.764,0,0,0-1.372,5.628,2.672,2.672,0,0,0-.8-.124c-1.871,0-3.39,1.924-3.39,4.294a6.757,6.757,0,0,0,.387,2.014c-10.575-1.731-17.663-4.914-17.663-8.55,0-4.215,9.52-7.818,22.961-9.265a123.236,123.236,0,0,1,13.125-.678c2.457,0,4.855.068,7.172.2C117.706,105.96,108.693,106.4,110.706,111.771Z" transform="translate(-0.001 -84.714)"/>
      <g id="Group_27" data-name="Group 27" transform="translate(98.874 41.588)">
        <path id="Path_49" data-name="Path 49" class="cls-9" d="M267.364,220.005c-.065.009-.129.018-.194.025a15.827,15.827,0,0,1-1.831.1c-6.272,0-10.114-8.993-10.114-8.993s-.435-1.678,0-2.11c1.363,2.516,5.389,8.994,10.115,8.994a15.835,15.835,0,0,0,1.831-.1A16.387,16.387,0,0,1,267.364,220.005Z" transform="translate(-243.392 -209.031)"/>
        <path id="Path_50" data-name="Path 50" class="cls-9" d="M208.361,211.14s-3.842,8.993-10.114,8.993a15.43,15.43,0,0,1-1.614-.081c-.007-.057-.014-.113-.018-.169a14.982,14.982,0,0,1-.081-1.948,16.061,16.061,0,0,0,1.713.09c4.726,0,6.762-7.047,10.114-8.994C208.795,209.462,208.361,211.14,208.361,211.14Z" transform="translate(-196.529 -209.03)"/>
      </g>
      <path id="Path_51" data-name="Path 51" class="cls-6" d="M143.455,310.2l4.39,8.169-6.42,3.813-.009,0c-2.913,4.825-9.289,3.987-9.289,3.987v-9.719C138.682,317.8,143.455,310.2,143.455,310.2Z" transform="translate(-46.066 -248.48)"/>
      <path id="Path_52" data-name="Path 52" class="cls-7" d="M194.408,139.564c-7.208-.931-26.838-2.434-24.379,9.208-1.318,1.424-2.446,3.4-4.091,4.918l-.228-.145c-1.345,0-3.1-2.726-3.865-5.074a6.755,6.755,0,0,1-.387-2.014c0-2.371,1.519-4.294,3.39-4.294a2.673,2.673,0,0,1,.8.124,23.762,23.762,0,0,1,1.372-5.628,132.461,132.461,0,0,1,26.5,0A22.5,22.5,0,0,1,194.408,139.564Z" transform="translate(-69.563 -108.938)"/>
      <path id="Path_53" data-name="Path 53" class="cls-6" d="M334.255,326.152s-6.374.839-9.289-3.985a0,0,0,0,1,0,0l-2.027-11.981a17.594,17.594,0,0,0,2.244,2.739.007.007,0,0,0,0,0C325.3,313.208,330.013,324.812,334.255,326.152Z" transform="translate(-198.913 -248.471)"/>
      <g id="Group_28" data-name="Group 28" transform="translate(101.654 31.395)">
        <path id="Path_54" data-name="Path 54" class="cls-10" d="M216.256,160.12c-.71-.038-1.2-.065-1.659-.063H213.38l-1.216,0c-.455,0-.948.024-1.66.06a2.345,2.345,0,0,1,.979-1.7,3.212,3.212,0,0,1,3.792,0A2.351,2.351,0,0,1,216.256,160.12Z" transform="translate(-210.504 -157.799)"/>
        <path id="Path_55" data-name="Path 55" class="cls-10" d="M278.336,160.12c-.71-.038-1.2-.065-1.659-.063H275.46l-1.216,0c-.455,0-.948.024-1.66.06a2.345,2.345,0,0,1,.979-1.7,3.212,3.212,0,0,1,3.792,0A2.352,2.352,0,0,1,278.336,160.12Z" transform="translate(-260.233 -157.799)"/>
      </g>
      <g id="Group_29" data-name="Group 29" transform="translate(90.59 37.954)">
        <path id="Path_56" data-name="Path 56" class="cls-8" d="M267.944,203.289a15.836,15.836,0,0,1-1.831.1c-6.272,0-10.115-8.993-10.115-8.993s3.842-4.746,7.911-3.39c2.606.868,3.915,4.242,6.419,6.555a8.1,8.1,0,0,0,5.786,2.26A15.032,15.032,0,0,1,267.944,203.289Z" transform="translate(-235.883 -190.765)"/>
        <path id="Path_57" data-name="Path 57" class="cls-8" d="M175.009,194.4s-3.842,8.993-10.114,8.993a16.053,16.053,0,0,1-1.713-.09,15.043,15.043,0,0,1-8.288-3.478,8.1,8.1,0,0,0,5.786-2.26c2.5-2.312,3.813-5.687,6.419-6.555C171.166,189.653,175.009,194.4,175.009,194.4Z" transform="translate(-154.893 -190.766)"/>
      </g>
      <path id="Path_58" data-name="Path 58" class="cls-2" d="M87.85,344.848a1.7,1.7,0,0,1-1.625-1.217l-1.13-3.842a1.7,1.7,0,1,1,3.253-.957l1.13,3.842a1.7,1.7,0,0,1-1.627,2.174Z" transform="translate(-8.336 -270.444)"/>
      <path id="Path_103" data-name="Path 103" class="cls-11" d="M3.842,0A3.842,3.842,0,1,1,0,3.842,3.842,3.842,0,0,1,3.842,0Z" transform="translate(135.795 43.213)"/>
      <path id="Path_59" data-name="Path 59" class="cls-12" d="M384.359,221.04a3.843,3.843,0,0,1,2.712-3.673,3.842,3.842,0,1,0,0,7.346A3.843,3.843,0,0,1,384.359,221.04Z" transform="translate(-246.305 -173.985)"/>
      <path id="Path_60" data-name="Path 60" class="cls-9" d="M204.357,279.979c2.355-2.36,2.789-8.028-2.62-11.17-3.646-2.115-4.674-6.46-4.957-9.068-.007-.057-.014-.113-.018-.169-.02-.212-.036-.411-.05-.595l.495-.4,4.529.373a9.244,9.244,0,0,0,2.7,7.086A9.6,9.6,0,0,1,204.357,279.979Z" transform="translate(-97.803 -207.132)"/>
    </g>
  </g>
</svg>
